<svg width="179" height="24" viewBox="0 0 179 24" fill="none" xmlns="http://www.w3.org/2000/svg">
<path d="M103.31 1.39014H10.41C10.4073 3.82136 9.44036 6.15226 7.72122 7.8714C6.00209 9.59053 3.67121 10.5575 1.23999 10.5602V23.4902" stroke="#322100" stroke-miterlimit="10"/>
<path d="M103.31 3.77002H12.3099C12.194 6.03459 11.2423 8.17573 9.63895 9.77911C8.03556 11.3825 5.89445 12.3342 3.62988 12.45V23.45" stroke="#322100" stroke-miterlimit="10"/>
<path d="M76.3901 3.77002H167.39C167.506 6.03459 168.458 8.17573 170.061 9.77911C171.664 11.3825 173.806 12.3342 176.07 12.45V23.45" stroke="#322100" stroke-miterlimit="10"/>
<path d="M76.3901 1.39014H169.3C169.303 3.82136 170.27 6.15226 171.989 7.8714C173.708 9.59053 176.039 10.5575 178.47 10.5602V23.4902" stroke="#322100" stroke-miterlimit="10"/>
</svg>
