<svg width="179" height="24" viewBox="0 0 179 24" fill="none" xmlns="http://www.w3.org/2000/svg">
<path d="M76.3901 22.8002H169.3C169.303 20.369 170.27 18.0381 171.989 16.319C173.708 14.5998 176.039 13.6329 178.47 13.6302V0.700195" stroke="#322100" stroke-miterlimit="10"/>
<path d="M76.3901 20.4202H167.39C167.506 18.1557 168.458 16.0145 170.061 14.4111C171.664 12.8077 173.806 11.8561 176.07 11.7402V0.740234" stroke="#322100" stroke-miterlimit="10"/>
<path d="M103.31 20.4202H12.3099C12.194 18.1557 11.2423 16.0145 9.63895 14.4111C8.03556 12.8077 5.89445 11.8561 3.62988 11.7402V0.740234" stroke="#322100" stroke-miterlimit="10"/>
<path d="M103.31 22.8002H10.41C10.4073 20.369 9.44036 18.0381 7.72122 16.319C6.00209 14.5998 3.67121 13.6329 1.23999 13.6302V0.700195" stroke="#322100" stroke-miterlimit="10"/>
</svg>
