<svg width="38" height="38" viewBox="0 0 38 38" fill="none" xmlns="http://www.w3.org/2000/svg">
<path d="M19 1C28.941 1 37 9.05887 37 19C37 28.941 28.941 37 19 37C9.05887 37 1 28.941 1 19C1 9.05887 9.05887 1 19 1ZM11.8 20.8L4.71162 20.8018C5.52457 27.3146 10.6869 32.4764 17.2 33.2886V26.2C14.2177 26.2 11.8 23.7824 11.8 20.8ZM33.2884 20.8018L26.2 20.8C26.2 23.7824 23.7824 26.2 20.8 26.2L20.8018 33.2884C27.314 32.4755 32.4755 27.314 33.2884 20.8018ZM22.6 19H15.4V20.8C15.4 21.7941 16.2059 22.6 17.2 22.6H20.8C21.7941 22.6 22.6 21.7941 22.6 20.8V19ZM19 4.6C11.6567 4.6 5.59713 10.0967 4.7114 17.2H11.8C11.8 16.2059 12.6059 15.4 13.6 15.4H24.4C25.3941 15.4 26.2 16.2059 26.2 17.2H33.2886C32.4028 10.0967 26.3433 4.6 19 4.6Z" fill="#1065E6" stroke="#1065E6" stroke-width="0.967213"/>
</svg>
